<svg width="20" height="16" viewBox="0 0 20 16" fill="none" xmlns="http://www.w3.org/2000/svg">
<path d="M16.9419 1.88516C15.6472 1.31608 14.2629 0.902473 12.8158 0.666992C12.638 0.968891 12.4303 1.37494 12.2872 1.69797C10.7487 1.48061 9.22442 1.48061 7.71429 1.69797C7.57116 1.37494 7.35876 0.968891 7.17947 0.666992C5.73067 0.902473 4.34479 1.31759 3.05016 1.88817C0.43887 5.59549 -0.269009 9.21074 0.0849305 12.7746C1.81688 13.9898 3.49534 14.7279 5.14548 15.2109C5.55291 14.6841 5.91628 14.1241 6.22933 13.5339C5.63314 13.3211 5.06211 13.0584 4.52255 12.7535C4.6657 12.6539 4.8057 12.5497 4.94099 12.4426C8.23187 13.8886 11.8074 13.8886 15.059 12.4426C15.1958 12.5497 15.3358 12.6539 15.4774 12.7535C14.9362 13.0599 14.3637 13.3226 13.7674 13.5354C14.0805 14.1241 14.4423 14.6857 14.8513 15.2124C16.503 14.7294 18.183 13.9913 19.915 12.7746C20.3303 8.64317 19.2055 5.06112 16.9419 1.88516ZM6.67765 10.5829C5.68977 10.5829 4.87963 9.71638 4.87963 8.66129C4.87963 7.60614 5.67246 6.7382 6.67765 6.7382C7.68285 6.7382 8.49295 7.60462 8.47565 8.66129C8.47726 9.71638 7.68285 10.5829 6.67765 10.5829ZM13.3223 10.5829C12.3344 10.5829 11.5242 9.71638 11.5242 8.66129C11.5242 7.60614 12.3171 6.7382 13.3223 6.7382C14.3274 6.7382 15.1376 7.60462 15.1203 8.66129C15.1203 9.71638 14.3274 10.5829 13.3223 10.5829Z" fill="#1E1E1E"/>
</svg>
